<?xml version="1.0" encoding="UTF-8" standalone="no"?>
<!DOCTYPE svg PUBLIC "-//W3C//DTD SVG 1.1//EN"
 "http://www.w3.org/Graphics/SVG/1.1/DTD/svg11.dtd">
<!-- Generated by graphviz version 2.43.0 (0)
 -->
<!-- Title: universalRobots::RobotParameters Pages: 1 -->
<svg width="252pt" height="153pt"
 viewBox="0.00 0.00 252.00 153.00" xmlns="http://www.w3.org/2000/svg" xmlns:xlink="http://www.w3.org/1999/xlink">
<g id="graph0" class="graph" transform="scale(1 1) rotate(0) translate(4 149)">
<title>universalRobots::RobotParameters</title>
<!-- Node1 -->
<g id="Node000001" class="node">
<title>Node1</title>
<g id="a_Node000001"><a xlink:title="Denavit&#45;Hartenberg link dimensions (meters) for a UR model. d &#45; z&#45;axis translations (d[6] is the end&#45;...">
<polygon fill="#999999" stroke="transparent" points="211,-49 32,-49 32,0 211,0 211,-49"/>
<text text-anchor="start" x="37.5" y="-36.5" font-family="Helvetica,sans-Serif" font-size="10.00">universalRobots::RobotParameters</text>
<text text-anchor="start" x="70.5" y="-21.5" font-family="Helvetica,sans-Serif" font-size="10.00">+</text>
<text text-anchor="start" x="117.5" y="-21.5" font-family="Helvetica,sans-Serif" font-size="10.00">type</text>
<text text-anchor="start" x="120" y="-6.5" font-family="Helvetica,sans-Serif" font-size="10.00"> </text>
<polygon fill="#666666" stroke="#666666" points="32.5,-31.5 32.5,-31.5 211.5,-31.5 211.5,-31.5 32.5,-31.5"/>
<polygon fill="#666666" stroke="#666666" points="32.5,-16.5 32.5,-16.5 115.5,-16.5 115.5,-16.5 32.5,-16.5"/>
<polygon fill="#666666" stroke="#666666" points="115.5,-16.5 115.5,-16.5 211.5,-16.5 211.5,-16.5 115.5,-16.5"/>
<polygon fill="none" stroke="#666666" points="32,0 32,-49 211,-49 211,0 32,0"/>
</a>
</g>
</g>
<!-- Node2 -->
<g id="Node000002" class="node">
<title>Node2</title>
<g id="a_Node000002"><a xlink:title=" ">
<polygon fill="white" stroke="transparent" points="113,-145 0,-145 0,-96 113,-96 113,-145"/>
<text text-anchor="start" x="5.5" y="-132.5" font-family="Helvetica,sans-Serif" font-size="10.00">std::array&lt; float, 7 &gt;</text>
<text text-anchor="start" x="16" y="-117.5" font-family="Helvetica,sans-Serif" font-size="10.00">+</text>
<text text-anchor="start" x="40.5" y="-117.5" font-family="Helvetica,sans-Serif" font-size="10.00">elements</text>
<text text-anchor="start" x="55" y="-102.5" font-family="Helvetica,sans-Serif" font-size="10.00"> </text>
<polygon fill="#666666" stroke="#666666" points="0.5,-127.5 0.5,-127.5 113.5,-127.5 113.5,-127.5 0.5,-127.5"/>
<polygon fill="#666666" stroke="#666666" points="0.5,-112.5 0.5,-112.5 38.5,-112.5 38.5,-112.5 0.5,-112.5"/>
<polygon fill="#666666" stroke="#666666" points="38.5,-112.5 38.5,-112.5 113.5,-112.5 113.5,-112.5 38.5,-112.5"/>
<polygon fill="none" stroke="#666666" points="0,-96 0,-145 113,-145 113,-96 0,-96"/>
</a>
</g>
</g>
<!-- Node2&#45;&gt;Node1 -->
<g id="edge1_Node000001_Node000002" class="edge">
<title>Node2&#45;&gt;Node1</title>
<g id="a_edge1_Node000001_Node000002"><a xlink:title=" ">
<path fill="none" stroke="#63b8ff" d="M72.9,-95.78C80.52,-84.76 89.72,-71.45 98.06,-59.4"/>
<polygon fill="none" stroke="#63b8ff" points="98.28,-59.08 98.4,-51.87 105.1,-49.21 104.98,-56.42 98.28,-59.08"/>
</a>
</g>
<text text-anchor="middle" x="100.5" y="-70" font-family="Helvetica,sans-Serif" font-size="10.00" fill="grey"> +d</text>
</g>
<!-- Node3 -->
<g id="Node000003" class="node">
<title>Node3</title>
<g id="a_Node000003"><a xlink:title=" ">
<polygon fill="white" stroke="transparent" points="244,-145 131,-145 131,-96 244,-96 244,-145"/>
<text text-anchor="start" x="136.5" y="-132.5" font-family="Helvetica,sans-Serif" font-size="10.00">std::array&lt; float, 4 &gt;</text>
<text text-anchor="start" x="147" y="-117.5" font-family="Helvetica,sans-Serif" font-size="10.00">+</text>
<text text-anchor="start" x="171.5" y="-117.5" font-family="Helvetica,sans-Serif" font-size="10.00">elements</text>
<text text-anchor="start" x="186" y="-102.5" font-family="Helvetica,sans-Serif" font-size="10.00"> </text>
<polygon fill="#666666" stroke="#666666" points="131.5,-127.5 131.5,-127.5 244.5,-127.5 244.5,-127.5 131.5,-127.5"/>
<polygon fill="#666666" stroke="#666666" points="131.5,-112.5 131.5,-112.5 169.5,-112.5 169.5,-112.5 131.5,-112.5"/>
<polygon fill="#666666" stroke="#666666" points="169.5,-112.5 169.5,-112.5 244.5,-112.5 244.5,-112.5 169.5,-112.5"/>
<polygon fill="none" stroke="#666666" points="131,-96 131,-145 244,-145 244,-96 131,-96"/>
</a>
</g>
</g>
<!-- Node3&#45;&gt;Node1 -->
<g id="edge2_Node000001_Node000003" class="edge">
<title>Node3&#45;&gt;Node1</title>
<g id="a_edge2_Node000001_Node000003"><a xlink:title=" ">
<path fill="none" stroke="#63b8ff" d="M170.85,-95.78C163.11,-84.76 153.76,-71.45 145.3,-59.4"/>
<polygon fill="none" stroke="#63b8ff" points="145.04,-59.03 138.32,-56.42 138.15,-49.21 144.87,-51.82 145.04,-59.03"/>
</a>
</g>
<text text-anchor="middle" x="164.5" y="-70" font-family="Helvetica,sans-Serif" font-size="10.00" fill="grey"> +a</text>
</g>
</g>
</svg>
