<?xml version="1.0" encoding="UTF-8" standalone="no"?>
<!DOCTYPE svg PUBLIC "-//W3C//DTD SVG 1.1//EN"
 "http://www.w3.org/Graphics/SVG/1.1/DTD/svg11.dtd">
<!-- Generated by graphviz version 2.43.0 (0)
 -->
<!-- Title: universalRobots::JointLimits Pages: 1 -->
<svg width="155pt" height="175pt"
 viewBox="0.00 0.00 155.00 175.00" xmlns="http://www.w3.org/2000/svg" xmlns:xlink="http://www.w3.org/1999/xlink">
<g id="graph0" class="graph" transform="scale(1 1) rotate(0) translate(4 171)">
<title>universalRobots::JointLimits</title>
<!-- Node1 -->
<g id="Node000001" class="node">
<title>Node1</title>
<g id="a_Node000001"><a xlink:title="Per&#45;joint inclusive [lower, upper] bounds (radians) used by filterByJointLimits().">
<polygon fill="#999999" stroke="transparent" points="147,-49 0,-49 0,0 147,0 147,-49"/>
<text text-anchor="start" x="5.5" y="-36.5" font-family="Helvetica,sans-Serif" font-size="10.00">universalRobots::JointLimits</text>
<text text-anchor="start" x="72" y="-21.5" font-family="Helvetica,sans-Serif" font-size="10.00"> </text>
<text text-anchor="start" x="72" y="-6.5" font-family="Helvetica,sans-Serif" font-size="10.00"> </text>
<polygon fill="#666666" stroke="#666666" points="0.5,-31.5 0.5,-31.5 147.5,-31.5 147.5,-31.5 0.5,-31.5"/>
<polygon fill="#666666" stroke="#666666" points="0.5,-16.5 0.5,-16.5 147.5,-16.5 147.5,-16.5 0.5,-16.5"/>
<polygon fill="none" stroke="#666666" points="0,0 0,-49 147,-49 147,0 0,0"/>
</a>
</g>
</g>
<!-- Node2 -->
<g id="Node000002" class="node">
<title>Node2</title>
<g id="a_Node000002"><a xlink:title=" ">
<polygon fill="white" stroke="transparent" points="120,-167 27,-167 27,-107 120,-107 120,-167"/>
<text text-anchor="start" x="32.5" y="-155" font-family="Helvetica,sans-Serif" font-size="10.00">std::array&lt; float,</text>
<text text-anchor="start" x="38.5" y="-144" font-family="Helvetica,sans-Serif" font-size="10.00"> m_numDoF &gt;</text>
<text text-anchor="start" x="38" y="-129" font-family="Helvetica,sans-Serif" font-size="10.00">+</text>
<text text-anchor="start" x="57.5" y="-129" font-family="Helvetica,sans-Serif" font-size="10.00">elements</text>
<text text-anchor="start" x="72" y="-114" font-family="Helvetica,sans-Serif" font-size="10.00"> </text>
<polygon fill="#666666" stroke="#666666" points="27.5,-139 27.5,-139 120.5,-139 120.5,-139 27.5,-139"/>
<polygon fill="#666666" stroke="#666666" points="27.5,-124 27.5,-124 55.5,-124 55.5,-124 27.5,-124"/>
<polygon fill="#666666" stroke="#666666" points="55.5,-124 55.5,-124 120.5,-124 120.5,-124 55.5,-124"/>
<polygon fill="none" stroke="#666666" points="27,-107 27,-167 120,-167 120,-107 27,-107"/>
</a>
</g>
</g>
<!-- Node2&#45;&gt;Node1 -->
<g id="edge1_Node000001_Node000002" class="edge">
<title>Node2&#45;&gt;Node1</title>
<g id="a_edge1_Node000001_Node000002"><a xlink:title=" ">
<path fill="none" stroke="#63b8ff" d="M73.5,-106.97C73.5,-93.02 73.5,-76.17 73.5,-61.43"/>
<polygon fill="none" stroke="#63b8ff" points="73.5,-61.13 69.5,-55.13 73.5,-49.13 77.5,-55.13 73.5,-61.13"/>
</a>
</g>
<text text-anchor="middle" x="93" y="-81" font-family="Helvetica,sans-Serif" font-size="10.00" fill="grey"> +lower</text>
<text text-anchor="middle" x="93" y="-70" font-family="Helvetica,sans-Serif" font-size="10.00" fill="grey">+upper</text>
</g>
</g>
</svg>
