<?xml version="1.0" encoding="UTF-8" standalone="no"?>
<!DOCTYPE svg PUBLIC "-//W3C//DTD SVG 1.1//EN"
 "http://www.w3.org/Graphics/SVG/1.1/DTD/svg11.dtd">
<!-- Generated by graphviz version 2.43.0 (0)
 -->
<!-- Title: universalRobots::pose Pages: 1 -->
<svg width="127pt" height="177pt"
 viewBox="0.00 0.00 127.00 177.00" xmlns="http://www.w3.org/2000/svg" xmlns:xlink="http://www.w3.org/1999/xlink">
<g id="graph0" class="graph" transform="scale(1 1) rotate(0) translate(4 173)">
<title>universalRobots::pose</title>
<!-- Node1 -->
<g id="Node000001" class="node">
<title>Node1</title>
<g id="a_Node000001"><a xlink:title="Structure which holds a pose { x y z } { alpha beta gamma }.">
<polygon fill="#999999" stroke="transparent" points="119,-169 0,-169 0,0 119,0 119,-169"/>
<text text-anchor="start" x="5.5" y="-156.5" font-family="Helvetica,sans-Serif" font-size="10.00">universalRobots::pose</text>
<text text-anchor="start" x="9" y="-141.5" font-family="Helvetica,sans-Serif" font-size="10.00">+</text>
<text text-anchor="start" x="26.5" y="-141.5" font-family="Helvetica,sans-Serif" font-size="10.00">m_pos</text>
<text text-anchor="start" x="9" y="-126.5" font-family="Helvetica,sans-Serif" font-size="10.00">+</text>
<text text-anchor="start" x="26.5" y="-126.5" font-family="Helvetica,sans-Serif" font-size="10.00">m_eulerAngles</text>
<text text-anchor="start" x="9" y="-111.5" font-family="Helvetica,sans-Serif" font-size="10.00">+</text>
<text text-anchor="start" x="26.5" y="-111.5" font-family="Helvetica,sans-Serif" font-size="10.00">pose()</text>
<text text-anchor="start" x="9" y="-96.5" font-family="Helvetica,sans-Serif" font-size="10.00">+</text>
<text text-anchor="start" x="26.5" y="-96.5" font-family="Helvetica,sans-Serif" font-size="10.00">pose()</text>
<text text-anchor="start" x="9" y="-81.5" font-family="Helvetica,sans-Serif" font-size="10.00">+</text>
<text text-anchor="start" x="26.5" y="-81.5" font-family="Helvetica,sans-Serif" font-size="10.00">pose()</text>
<text text-anchor="start" x="9" y="-66.5" font-family="Helvetica,sans-Serif" font-size="10.00">+</text>
<text text-anchor="start" x="26.5" y="-66.5" font-family="Helvetica,sans-Serif" font-size="10.00">pose()</text>
<text text-anchor="start" x="9" y="-51.5" font-family="Helvetica,sans-Serif" font-size="10.00">+</text>
<text text-anchor="start" x="26.5" y="-51.5" font-family="Helvetica,sans-Serif" font-size="10.00">divideByConst()</text>
<text text-anchor="start" x="9" y="-36.5" font-family="Helvetica,sans-Serif" font-size="10.00">+</text>
<text text-anchor="start" x="26.5" y="-36.5" font-family="Helvetica,sans-Serif" font-size="10.00">subtract()</text>
<text text-anchor="start" x="9" y="-21.5" font-family="Helvetica,sans-Serif" font-size="10.00">+</text>
<text text-anchor="start" x="26.5" y="-21.5" font-family="Helvetica,sans-Serif" font-size="10.00">operator/()</text>
<text text-anchor="start" x="9" y="-6.5" font-family="Helvetica,sans-Serif" font-size="10.00">+</text>
<text text-anchor="start" x="26.5" y="-6.5" font-family="Helvetica,sans-Serif" font-size="10.00">operator&#45;()</text>
<polygon fill="#666666" stroke="#666666" points="0.5,-151.5 0.5,-151.5 119.5,-151.5 119.5,-151.5 0.5,-151.5"/>
<polygon fill="#666666" stroke="#666666" points="0.5,-121.5 0.5,-121.5 24.5,-121.5 24.5,-121.5 0.5,-121.5"/>
<polygon fill="#666666" stroke="#666666" points="24.5,-121.5 24.5,-121.5 119.5,-121.5 119.5,-121.5 24.5,-121.5"/>
<polygon fill="none" stroke="#666666" points="0,0 0,-169 119,-169 119,0 0,0"/>
</a>
</g>
</g>
</g>
</svg>
