<?xml version="1.0" encoding="UTF-8" standalone="no"?>
<!DOCTYPE svg PUBLIC "-//W3C//DTD SVG 1.1//EN"
 "http://www.w3.org/Graphics/SVG/1.1/DTD/svg11.dtd">
<!-- Generated by graphviz version 2.43.0 (0)
 -->
<!-- Title: universalRobots::joint Pages: 1 -->
<svg width="140pt" height="273pt"
 viewBox="0.00 0.00 139.50 273.00" xmlns="http://www.w3.org/2000/svg" xmlns:xlink="http://www.w3.org/1999/xlink">
<g id="graph0" class="graph" transform="scale(1 1) rotate(0) translate(4 269)">
<title>universalRobots::joint</title>
<!-- Node1 -->
<g id="Node000001" class="node">
<title>Node1</title>
<g id="a_Node000001"><a xlink:title="Structure which holds the current value and pose of a joint.">
<polygon fill="#999999" stroke="transparent" points="118,-49 1,-49 1,0 118,0 118,-49"/>
<text text-anchor="start" x="6.5" y="-36.5" font-family="Helvetica,sans-Serif" font-size="10.00">universalRobots::joint</text>
<text text-anchor="start" x="13.5" y="-21.5" font-family="Helvetica,sans-Serif" font-size="10.00">+</text>
<text text-anchor="start" x="34.5" y="-21.5" font-family="Helvetica,sans-Serif" font-size="10.00">m_jointValue</text>
<text text-anchor="start" x="58" y="-6.5" font-family="Helvetica,sans-Serif" font-size="10.00"> </text>
<polygon fill="#666666" stroke="#666666" points="1.5,-31.5 1.5,-31.5 118.5,-31.5 118.5,-31.5 1.5,-31.5"/>
<polygon fill="#666666" stroke="#666666" points="1.5,-16.5 1.5,-16.5 32.5,-16.5 32.5,-16.5 1.5,-16.5"/>
<polygon fill="#666666" stroke="#666666" points="32.5,-16.5 32.5,-16.5 118.5,-16.5 118.5,-16.5 32.5,-16.5"/>
<polygon fill="none" stroke="#666666" points="1,0 1,-49 118,-49 118,0 1,0"/>
</a>
</g>
</g>
<!-- Node2 -->
<g id="Node000002" class="node">
<title>Node2</title>
<g id="a_Node000002"><a xlink:href="structuniversalRobots_1_1pose.html" target="_top" xlink:title="Structure which holds a pose { x y z } { alpha beta gamma }.">
<polygon fill="white" stroke="transparent" points="119,-265 0,-265 0,-96 119,-96 119,-265"/>
<text text-anchor="start" x="5.5" y="-252.5" font-family="Helvetica,sans-Serif" font-size="10.00">universalRobots::pose</text>
<text text-anchor="start" x="9" y="-237.5" font-family="Helvetica,sans-Serif" font-size="10.00">+</text>
<text text-anchor="start" x="26.5" y="-237.5" font-family="Helvetica,sans-Serif" font-size="10.00">m_pos</text>
<text text-anchor="start" x="9" y="-222.5" font-family="Helvetica,sans-Serif" font-size="10.00">+</text>
<text text-anchor="start" x="26.5" y="-222.5" font-family="Helvetica,sans-Serif" font-size="10.00">m_eulerAngles</text>
<text text-anchor="start" x="9" y="-207.5" font-family="Helvetica,sans-Serif" font-size="10.00">+</text>
<text text-anchor="start" x="26.5" y="-207.5" font-family="Helvetica,sans-Serif" font-size="10.00">pose()</text>
<text text-anchor="start" x="9" y="-192.5" font-family="Helvetica,sans-Serif" font-size="10.00">+</text>
<text text-anchor="start" x="26.5" y="-192.5" font-family="Helvetica,sans-Serif" font-size="10.00">pose()</text>
<text text-anchor="start" x="9" y="-177.5" font-family="Helvetica,sans-Serif" font-size="10.00">+</text>
<text text-anchor="start" x="26.5" y="-177.5" font-family="Helvetica,sans-Serif" font-size="10.00">pose()</text>
<text text-anchor="start" x="9" y="-162.5" font-family="Helvetica,sans-Serif" font-size="10.00">+</text>
<text text-anchor="start" x="26.5" y="-162.5" font-family="Helvetica,sans-Serif" font-size="10.00">pose()</text>
<text text-anchor="start" x="9" y="-147.5" font-family="Helvetica,sans-Serif" font-size="10.00">+</text>
<text text-anchor="start" x="26.5" y="-147.5" font-family="Helvetica,sans-Serif" font-size="10.00">divideByConst()</text>
<text text-anchor="start" x="9" y="-132.5" font-family="Helvetica,sans-Serif" font-size="10.00">+</text>
<text text-anchor="start" x="26.5" y="-132.5" font-family="Helvetica,sans-Serif" font-size="10.00">subtract()</text>
<text text-anchor="start" x="9" y="-117.5" font-family="Helvetica,sans-Serif" font-size="10.00">+</text>
<text text-anchor="start" x="26.5" y="-117.5" font-family="Helvetica,sans-Serif" font-size="10.00">operator/()</text>
<text text-anchor="start" x="9" y="-102.5" font-family="Helvetica,sans-Serif" font-size="10.00">+</text>
<text text-anchor="start" x="26.5" y="-102.5" font-family="Helvetica,sans-Serif" font-size="10.00">operator&#45;()</text>
<polygon fill="#666666" stroke="#666666" points="0.5,-247.5 0.5,-247.5 119.5,-247.5 119.5,-247.5 0.5,-247.5"/>
<polygon fill="#666666" stroke="#666666" points="0.5,-217.5 0.5,-217.5 24.5,-217.5 24.5,-217.5 0.5,-217.5"/>
<polygon fill="#666666" stroke="#666666" points="24.5,-217.5 24.5,-217.5 119.5,-217.5 119.5,-217.5 24.5,-217.5"/>
<polygon fill="none" stroke="#666666" points="0,-96 0,-265 119,-265 119,-96 0,-96"/>
</a>
</g>
</g>
<!-- Node2&#45;&gt;Node1 -->
<g id="edge1_Node000001_Node000002" class="edge">
<title>Node2&#45;&gt;Node1</title>
<g id="a_edge1_Node000001_Node000002"><a xlink:title=" ">
<path fill="none" stroke="#63b8ff" d="M59.5,-95.74C59.5,-83.74 59.5,-71.95 59.5,-61.57"/>
<polygon fill="none" stroke="#63b8ff" points="59.5,-61.26 55.5,-55.26 59.5,-49.26 63.5,-55.26 59.5,-61.26"/>
</a>
</g>
<text text-anchor="middle" x="95.5" y="-70" font-family="Helvetica,sans-Serif" font-size="10.00" fill="grey"> +m_jointPose</text>
</g>
</g>
</svg>
