<?xml version="1.0" encoding="UTF-8" standalone="no"?>
<!DOCTYPE svg PUBLIC "-//W3C//DTD SVG 1.1//EN"
 "http://www.w3.org/Graphics/SVG/1.1/DTD/svg11.dtd">
<!-- Generated by graphviz version 2.43.0 (0)
 -->
<!-- Title: universalRobots::UR::IkSolutions Pages: 1 -->
<svg width="264pt" height="293pt"
 viewBox="0.00 0.00 264.00 293.00" xmlns="http://www.w3.org/2000/svg" xmlns:xlink="http://www.w3.org/1999/xlink">
<g id="graph0" class="graph" transform="scale(1 1) rotate(0) translate(4 289)">
<title>universalRobots::UR::IkSolutions</title>
<!-- Node1 -->
<g id="Node000001" class="node">
<title>Node1</title>
<g id="a_Node000001"><a xlink:title="The eight inverse&#45;kinematics solutions, each a full joint vector.">
<polygon fill="#999999" stroke="transparent" points="218.5,-60 108.5,-60 108.5,0 218.5,0 218.5,-60"/>
<text text-anchor="start" x="113.5" y="-48" font-family="Helvetica,sans-Serif" font-size="10.00">universalRobots::UR</text>
<text text-anchor="start" x="133" y="-37" font-family="Helvetica,sans-Serif" font-size="10.00">::IkSolutions</text>
<text text-anchor="start" x="161.5" y="-22" font-family="Helvetica,sans-Serif" font-size="10.00"> </text>
<text text-anchor="start" x="122" y="-7" font-family="Helvetica,sans-Serif" font-size="10.00">+</text>
<text text-anchor="start" x="144.5" y="-7" font-family="Helvetica,sans-Serif" font-size="10.00">anyValid()</text>
<polygon fill="#666666" stroke="#666666" points="108.5,-32 108.5,-32 218.5,-32 218.5,-32 108.5,-32"/>
<polygon fill="#666666" stroke="#666666" points="108.5,-17 108.5,-17 218.5,-17 218.5,-17 108.5,-17"/>
<polygon fill="none" stroke="#666666" points="108.5,0 108.5,-60 218.5,-60 218.5,0 108.5,0"/>
</a>
</g>
</g>
<!-- Node2 -->
<g id="Node000002" class="node">
<title>Node2</title>
<g id="a_Node000002"><a xlink:title=" ">
<polygon fill="white" stroke="transparent" points="133,-178 0,-178 0,-107 133,-107 133,-178"/>
<text text-anchor="start" x="5.5" y="-165.5" font-family="Helvetica,sans-Serif" font-size="10.00">std::array&lt; std::array</text>
<text text-anchor="start" x="5.5" y="-154.5" font-family="Helvetica,sans-Serif" font-size="10.00">&lt; float, m_numDoF &gt;, m</text>
<text text-anchor="start" x="35.5" y="-143.5" font-family="Helvetica,sans-Serif" font-size="10.00">_numIkSol &gt;</text>
<text text-anchor="start" x="65" y="-128.5" font-family="Helvetica,sans-Serif" font-size="10.00"> </text>
<text text-anchor="start" x="65" y="-113.5" font-family="Helvetica,sans-Serif" font-size="10.00"> </text>
<polygon fill="#666666" stroke="#666666" points="0.5,-138.5 0.5,-138.5 133.5,-138.5 133.5,-138.5 0.5,-138.5"/>
<polygon fill="#666666" stroke="#666666" points="0.5,-123.5 0.5,-123.5 133.5,-123.5 133.5,-123.5 0.5,-123.5"/>
<polygon fill="none" stroke="#666666" points="0,-107 0,-178 133,-178 133,-107 0,-107"/>
</a>
</g>
</g>
<!-- Node2&#45;&gt;Node1 -->
<g id="edge1_Node000001_Node000002" class="edge">
<title>Node2&#45;&gt;Node1</title>
<g id="a_edge1_Node000001_Node000002"><a xlink:title=" ">
<path fill="none" stroke="#63b8ff" d="M95.7,-106.7C103.68,-97.32 112.36,-87.22 120.5,-78 123.06,-75.1 125.72,-72.11 128.42,-69.11"/>
<polygon fill="none" stroke="#63b8ff" points="128.45,-69.08 129.51,-61.95 136.5,-60.19 135.44,-67.32 128.45,-69.08"/>
</a>
</g>
<text text-anchor="middle" x="148.5" y="-81" font-family="Helvetica,sans-Serif" font-size="10.00" fill="grey"> +solutions</text>
</g>
<!-- Node3 -->
<g id="Node000003" class="node">
<title>Node3</title>
<g id="a_Node000003"><a xlink:title=" ">
<polygon fill="white" stroke="transparent" points="113,-285 20,-285 20,-225 113,-225 113,-285"/>
<text text-anchor="start" x="25.5" y="-273" font-family="Helvetica,sans-Serif" font-size="10.00">std::array&lt; float,</text>
<text text-anchor="start" x="31.5" y="-262" font-family="Helvetica,sans-Serif" font-size="10.00"> m_numDoF &gt;</text>
<text text-anchor="start" x="31" y="-247" font-family="Helvetica,sans-Serif" font-size="10.00">+</text>
<text text-anchor="start" x="50.5" y="-247" font-family="Helvetica,sans-Serif" font-size="10.00">elements</text>
<text text-anchor="start" x="65" y="-232" font-family="Helvetica,sans-Serif" font-size="10.00"> </text>
<polygon fill="#666666" stroke="#666666" points="20.5,-257 20.5,-257 113.5,-257 113.5,-257 20.5,-257"/>
<polygon fill="#666666" stroke="#666666" points="20.5,-242 20.5,-242 48.5,-242 48.5,-242 20.5,-242"/>
<polygon fill="#666666" stroke="#666666" points="48.5,-242 48.5,-242 113.5,-242 113.5,-242 48.5,-242"/>
<polygon fill="none" stroke="#666666" points="20,-225 20,-285 113,-285 113,-225 20,-225"/>
</a>
</g>
</g>
<!-- Node3&#45;&gt;Node2 -->
<g id="edge2_Node000002_Node000003" class="edge">
<title>Node3&#45;&gt;Node2</title>
<g id="a_edge2_Node000002_Node000003"><a xlink:title=" ">
<path fill="none" stroke="#63b8ff" d="M66.5,-224.97C66.5,-214.45 66.5,-202.28 66.5,-190.61"/>
<polygon fill="none" stroke="#63b8ff" points="66.5,-190.24 62.5,-184.24 66.5,-178.24 70.5,-184.24 66.5,-190.24"/>
</a>
</g>
<text text-anchor="middle" x="95.5" y="-199" font-family="Helvetica,sans-Serif" font-size="10.00" fill="grey"> +elements</text>
</g>
<!-- Node4 -->
<g id="Node000004" class="node">
<title>Node4</title>
<g id="a_Node000004"><a xlink:title=" ">
<polygon fill="white" stroke="transparent" points="256,-172.5 151,-172.5 151,-112.5 256,-112.5 256,-172.5"/>
<text text-anchor="start" x="156.5" y="-160.5" font-family="Helvetica,sans-Serif" font-size="10.00">std::array&lt; bool, m</text>
<text text-anchor="start" x="172.5" y="-149.5" font-family="Helvetica,sans-Serif" font-size="10.00">_numIkSol &gt;</text>
<text text-anchor="start" x="165" y="-134.5" font-family="Helvetica,sans-Serif" font-size="10.00">+</text>
<text text-anchor="start" x="187.5" y="-134.5" font-family="Helvetica,sans-Serif" font-size="10.00">elements</text>
<text text-anchor="start" x="202" y="-119.5" font-family="Helvetica,sans-Serif" font-size="10.00"> </text>
<polygon fill="#666666" stroke="#666666" points="151.5,-144.5 151.5,-144.5 256.5,-144.5 256.5,-144.5 151.5,-144.5"/>
<polygon fill="#666666" stroke="#666666" points="151.5,-129.5 151.5,-129.5 185.5,-129.5 185.5,-129.5 151.5,-129.5"/>
<polygon fill="#666666" stroke="#666666" points="185.5,-129.5 185.5,-129.5 256.5,-129.5 256.5,-129.5 185.5,-129.5"/>
<polygon fill="none" stroke="#666666" points="151,-112.5 151,-172.5 256,-172.5 256,-112.5 151,-112.5"/>
</a>
</g>
</g>
<!-- Node4&#45;&gt;Node1 -->
<g id="edge3_Node000001_Node000004" class="edge">
<title>Node4&#45;&gt;Node1</title>
<g id="a_edge3_Node000001_Node000004"><a xlink:title=" ">
<path fill="none" stroke="#63b8ff" d="M192.99,-112.47C188.48,-100 183.13,-85.22 178.23,-71.7"/>
<polygon fill="none" stroke="#63b8ff" points="178.16,-71.51 172.36,-67.23 174.08,-60.22 179.88,-64.5 178.16,-71.51"/>
</a>
</g>
<text text-anchor="middle" x="201.5" y="-81" font-family="Helvetica,sans-Serif" font-size="10.00" fill="grey"> +valid</text>
</g>
</g>
</svg>
