<?xml version="1.0" encoding="UTF-8" standalone="no"?>
<!DOCTYPE svg PUBLIC "-//W3C//DTD SVG 1.1//EN"
 "http://www.w3.org/Graphics/SVG/1.1/DTD/svg11.dtd">
<!-- Generated by graphviz version 2.43.0 (0)
 -->
<!-- Title: universalRobots::pose::pose Pages: 1 -->
<svg width="455pt" height="86pt"
 viewBox="0.00 0.00 455.00 86.00" xmlns="http://www.w3.org/2000/svg" xmlns:xlink="http://www.w3.org/1999/xlink">
<g id="graph0" class="graph" transform="scale(1 1) rotate(0) translate(4 82)">
<title>universalRobots::pose::pose</title>
<!-- Node1 -->
<g id="Node000001" class="node">
<title>Node1</title>
<g id="a_Node000001"><a xlink:title=" ">
<polygon fill="#999999" stroke="#666666" points="447,-54 322,-54 322,-24 447,-24 447,-54"/>
<text text-anchor="start" x="330" y="-42" font-family="Helvetica,sans-Serif" font-size="10.00">universalRobots::pose</text>
<text text-anchor="middle" x="384.5" y="-31" font-family="Helvetica,sans-Serif" font-size="10.00">::pose</text>
</a>
</g>
</g>
<!-- Node2 -->
<g id="Node000002" class="node">
<title>Node2</title>
<g id="a_Node000002"><a xlink:href="structuniversalRobots_1_1pose.html#a637f33726e7b03e024a2c9e9a2060755" target="_top" xlink:title=" ">
<polygon fill="white" stroke="#666666" points="286,-78 161,-78 161,-48 286,-48 286,-78"/>
<text text-anchor="start" x="169" y="-66" font-family="Helvetica,sans-Serif" font-size="10.00">universalRobots::pose</text>
<text text-anchor="middle" x="223.5" y="-55" font-family="Helvetica,sans-Serif" font-size="10.00">::divideByConst</text>
</a>
</g>
</g>
<!-- Node1&#45;&gt;Node2 -->
<g id="edge1_Node000001_Node000002" class="edge">
<title>Node1&#45;&gt;Node2</title>
<g id="a_edge1_Node000001_Node000002"><a xlink:title=" ">
<path fill="none" stroke="#63b8ff" d="M311.41,-49.88C303.01,-51.15 294.5,-52.43 286.26,-53.68"/>
<polygon fill="#63b8ff" stroke="#63b8ff" points="312.21,-53.3 321.57,-48.35 311.16,-46.38 312.21,-53.3"/>
</a>
</g>
</g>
<!-- Node4 -->
<g id="Node000004" class="node">
<title>Node4</title>
<g id="a_Node000004"><a xlink:href="structuniversalRobots_1_1pose.html#a7520a18e5faf393df003ffaf3735717e" target="_top" xlink:title=" ">
<polygon fill="white" stroke="#666666" points="286,-30 161,-30 161,0 286,0 286,-30"/>
<text text-anchor="start" x="169" y="-18" font-family="Helvetica,sans-Serif" font-size="10.00">universalRobots::pose</text>
<text text-anchor="middle" x="223.5" y="-7" font-family="Helvetica,sans-Serif" font-size="10.00">::subtract</text>
</a>
</g>
</g>
<!-- Node1&#45;&gt;Node4 -->
<g id="edge3_Node000001_Node000004" class="edge">
<title>Node1&#45;&gt;Node4</title>
<g id="a_edge3_Node000001_Node000004"><a xlink:title=" ">
<path fill="none" stroke="#63b8ff" d="M311.41,-28.12C303.01,-26.85 294.5,-25.57 286.26,-24.32"/>
<polygon fill="#63b8ff" stroke="#63b8ff" points="311.16,-31.62 321.57,-29.65 312.21,-24.7 311.16,-31.62"/>
</a>
</g>
</g>
<!-- Node3 -->
<g id="Node000003" class="node">
<title>Node3</title>
<g id="a_Node000003"><a xlink:href="structuniversalRobots_1_1pose.html#a1f03c4fbf925b190a23c4d2d8eac7a7a" target="_top" xlink:title=" ">
<polygon fill="white" stroke="#666666" points="125,-78 0,-78 0,-48 125,-48 125,-78"/>
<text text-anchor="start" x="8" y="-66" font-family="Helvetica,sans-Serif" font-size="10.00">universalRobots::pose</text>
<text text-anchor="middle" x="62.5" y="-55" font-family="Helvetica,sans-Serif" font-size="10.00">::operator/</text>
</a>
</g>
</g>
<!-- Node2&#45;&gt;Node3 -->
<g id="edge2_Node000002_Node000003" class="edge">
<title>Node2&#45;&gt;Node3</title>
<g id="a_edge2_Node000002_Node000003"><a xlink:title=" ">
<path fill="none" stroke="#63b8ff" d="M150.41,-63C142.01,-63 133.5,-63 125.26,-63"/>
<polygon fill="#63b8ff" stroke="#63b8ff" points="150.57,-66.5 160.57,-63 150.57,-59.5 150.57,-66.5"/>
</a>
</g>
</g>
<!-- Node5 -->
<g id="Node000005" class="node">
<title>Node5</title>
<g id="a_Node000005"><a xlink:href="structuniversalRobots_1_1pose.html#ad736abe05a52192ebdad0c151b30adb3" target="_top" xlink:title=" ">
<polygon fill="white" stroke="#666666" points="125,-30 0,-30 0,0 125,0 125,-30"/>
<text text-anchor="start" x="8" y="-18" font-family="Helvetica,sans-Serif" font-size="10.00">universalRobots::pose</text>
<text text-anchor="middle" x="62.5" y="-7" font-family="Helvetica,sans-Serif" font-size="10.00">::operator&#45;</text>
</a>
</g>
</g>
<!-- Node4&#45;&gt;Node5 -->
<g id="edge4_Node000004_Node000005" class="edge">
<title>Node4&#45;&gt;Node5</title>
<g id="a_edge4_Node000004_Node000005"><a xlink:title=" ">
<path fill="none" stroke="#63b8ff" d="M150.41,-15C142.01,-15 133.5,-15 125.26,-15"/>
<polygon fill="#63b8ff" stroke="#63b8ff" points="150.57,-18.5 160.57,-15 150.57,-11.5 150.57,-18.5"/>
</a>
</g>
</g>
</g>
</svg>
