<?xml version="1.0" encoding="UTF-8" standalone="no"?>
<!DOCTYPE svg PUBLIC "-//W3C//DTD SVG 1.1//EN"
 "http://www.w3.org/Graphics/SVG/1.1/DTD/svg11.dtd">
<!-- Generated by graphviz version 2.43.0 (0)
 -->
<!-- Title: universalRobots::UR::IkSolutions Pages: 1 -->
<svg width="264pt" height="186pt"
 viewBox="0.00 0.00 264.00 186.00" xmlns="http://www.w3.org/2000/svg" xmlns:xlink="http://www.w3.org/1999/xlink">
<g id="graph0" class="graph" transform="scale(1 1) rotate(0) translate(4 182)">
<title>universalRobots::UR::IkSolutions</title>
<!-- Node1 -->
<g id="Node000001" class="node">
<title>Node1</title>
<g id="a_Node000001"><a xlink:title="The eight inverse&#45;kinematics solutions, each a full joint vector. valid[i] is true when solution i is...">
<polygon fill="#999999" stroke="transparent" points="189.5,-60 79.5,-60 79.5,0 189.5,0 189.5,-60"/>
<text text-anchor="start" x="84.5" y="-48" font-family="Helvetica,sans-Serif" font-size="10.00">universalRobots::UR</text>
<text text-anchor="start" x="104" y="-37" font-family="Helvetica,sans-Serif" font-size="10.00">::IkSolutions</text>
<text text-anchor="start" x="132.5" y="-22" font-family="Helvetica,sans-Serif" font-size="10.00"> </text>
<text text-anchor="start" x="93" y="-7" font-family="Helvetica,sans-Serif" font-size="10.00">+</text>
<text text-anchor="start" x="115.5" y="-7" font-family="Helvetica,sans-Serif" font-size="10.00">anyValid()</text>
<polygon fill="#666666" stroke="#666666" points="79.5,-32 79.5,-32 189.5,-32 189.5,-32 79.5,-32"/>
<polygon fill="#666666" stroke="#666666" points="79.5,-17 79.5,-17 189.5,-17 189.5,-17 79.5,-17"/>
<polygon fill="none" stroke="#666666" points="79.5,0 79.5,-60 189.5,-60 189.5,0 79.5,0"/>
</a>
</g>
</g>
<!-- Node2 -->
<g id="Node000002" class="node">
<title>Node2</title>
<g id="a_Node000002"><a xlink:title=" ">
<polygon fill="white" stroke="transparent" points="133,-178 0,-178 0,-107 133,-107 133,-178"/>
<text text-anchor="start" x="5.5" y="-165.5" font-family="Helvetica,sans-Serif" font-size="10.00">std::array&lt; std::array</text>
<text text-anchor="start" x="5.5" y="-154.5" font-family="Helvetica,sans-Serif" font-size="10.00">&lt; float, m_numDoF &gt;, m</text>
<text text-anchor="start" x="35.5" y="-143.5" font-family="Helvetica,sans-Serif" font-size="10.00">_numIkSol &gt;</text>
<text text-anchor="start" x="21" y="-128.5" font-family="Helvetica,sans-Serif" font-size="10.00">+</text>
<text text-anchor="start" x="50.5" y="-128.5" font-family="Helvetica,sans-Serif" font-size="10.00">elements</text>
<text text-anchor="start" x="65" y="-113.5" font-family="Helvetica,sans-Serif" font-size="10.00"> </text>
<polygon fill="#666666" stroke="#666666" points="0.5,-138.5 0.5,-138.5 133.5,-138.5 133.5,-138.5 0.5,-138.5"/>
<polygon fill="#666666" stroke="#666666" points="0.5,-123.5 0.5,-123.5 48.5,-123.5 48.5,-123.5 0.5,-123.5"/>
<polygon fill="#666666" stroke="#666666" points="48.5,-123.5 48.5,-123.5 133.5,-123.5 133.5,-123.5 48.5,-123.5"/>
<polygon fill="none" stroke="#666666" points="0,-107 0,-178 133,-178 133,-107 0,-107"/>
</a>
</g>
</g>
<!-- Node2&#45;&gt;Node1 -->
<g id="edge1_Node000001_Node000002" class="edge">
<title>Node2&#45;&gt;Node1</title>
<g id="a_edge1_Node000001_Node000002"><a xlink:title=" ">
<path fill="none" stroke="#63b8ff" d="M87.83,-106.84C94.87,-95.4 102.75,-82.59 110,-70.8"/>
<polygon fill="none" stroke="#63b8ff" points="110.16,-70.55 109.9,-63.35 116.45,-60.33 116.71,-67.54 110.16,-70.55"/>
</a>
</g>
<text text-anchor="middle" x="133.5" y="-81" font-family="Helvetica,sans-Serif" font-size="10.00" fill="grey"> +solutions</text>
</g>
<!-- Node3 -->
<g id="Node000003" class="node">
<title>Node3</title>
<g id="a_Node000003"><a xlink:title=" ">
<polygon fill="white" stroke="transparent" points="256,-172.5 151,-172.5 151,-112.5 256,-112.5 256,-172.5"/>
<text text-anchor="start" x="156.5" y="-160.5" font-family="Helvetica,sans-Serif" font-size="10.00">std::array&lt; bool, m</text>
<text text-anchor="start" x="172.5" y="-149.5" font-family="Helvetica,sans-Serif" font-size="10.00">_numIkSol &gt;</text>
<text text-anchor="start" x="165" y="-134.5" font-family="Helvetica,sans-Serif" font-size="10.00">+</text>
<text text-anchor="start" x="187.5" y="-134.5" font-family="Helvetica,sans-Serif" font-size="10.00">elements</text>
<text text-anchor="start" x="202" y="-119.5" font-family="Helvetica,sans-Serif" font-size="10.00"> </text>
<polygon fill="#666666" stroke="#666666" points="151.5,-144.5 151.5,-144.5 256.5,-144.5 256.5,-144.5 151.5,-144.5"/>
<polygon fill="#666666" stroke="#666666" points="151.5,-129.5 151.5,-129.5 185.5,-129.5 185.5,-129.5 151.5,-129.5"/>
<polygon fill="#666666" stroke="#666666" points="185.5,-129.5 185.5,-129.5 256.5,-129.5 256.5,-129.5 185.5,-129.5"/>
<polygon fill="none" stroke="#666666" points="151,-112.5 151,-172.5 256,-172.5 256,-112.5 151,-112.5"/>
</a>
</g>
</g>
<!-- Node3&#45;&gt;Node1 -->
<g id="edge2_Node000001_Node000003" class="edge">
<title>Node3&#45;&gt;Node1</title>
<g id="a_edge2_Node000001_Node000003"><a xlink:title=" ">
<path fill="none" stroke="#63b8ff" d="M186.36,-112.25C179.92,-101.43 172.47,-89.09 165.5,-78 163.96,-75.56 162.37,-73.05 160.75,-70.53"/>
<polygon fill="none" stroke="#63b8ff" points="160.58,-70.27 153.96,-67.42 154.05,-60.21 160.67,-63.06 160.58,-70.27"/>
</a>
</g>
<text text-anchor="middle" x="189.5" y="-81" font-family="Helvetica,sans-Serif" font-size="10.00" fill="grey"> +valid</text>
</g>
</g>
</svg>
