<?xml version="1.0" encoding="UTF-8" standalone="no"?>
<!DOCTYPE svg PUBLIC "-//W3C//DTD SVG 1.1//EN"
 "http://www.w3.org/Graphics/SVG/1.1/DTD/svg11.dtd">
<!-- Generated by graphviz version 2.43.0 (0)
 -->
<!-- Title: universalRobots::joint Pages: 1 -->
<svg width="153pt" height="365pt"
 viewBox="0.00 0.00 152.50 365.00" xmlns="http://www.w3.org/2000/svg" xmlns:xlink="http://www.w3.org/1999/xlink">
<g id="graph0" class="graph" transform="scale(1 1) rotate(0) translate(4 361)">
<title>universalRobots::joint</title>
<!-- Node1 -->
<g id="Node000001" class="node">
<title>Node1</title>
<g id="a_Node000001"><a xlink:title="Structure which holds the current value and pose of a joint.">
<polygon fill="#999999" stroke="transparent" points="118,-49 1,-49 1,0 118,0 118,-49"/>
<text text-anchor="start" x="6.5" y="-36.5" font-family="Helvetica,sans-Serif" font-size="10.00">universalRobots::joint</text>
<text text-anchor="start" x="13.5" y="-21.5" font-family="Helvetica,sans-Serif" font-size="10.00">+</text>
<text text-anchor="start" x="34.5" y="-21.5" font-family="Helvetica,sans-Serif" font-size="10.00">m_jointValue</text>
<text text-anchor="start" x="58" y="-6.5" font-family="Helvetica,sans-Serif" font-size="10.00"> </text>
<polygon fill="#666666" stroke="#666666" points="1.5,-31.5 1.5,-31.5 118.5,-31.5 118.5,-31.5 1.5,-31.5"/>
<polygon fill="#666666" stroke="#666666" points="1.5,-16.5 1.5,-16.5 32.5,-16.5 32.5,-16.5 1.5,-16.5"/>
<polygon fill="#666666" stroke="#666666" points="32.5,-16.5 32.5,-16.5 118.5,-16.5 118.5,-16.5 32.5,-16.5"/>
<polygon fill="none" stroke="#666666" points="1,0 1,-49 118,-49 118,0 1,0"/>
</a>
</g>
</g>
<!-- Node2 -->
<g id="Node000002" class="node">
<title>Node2</title>
<g id="a_Node000002"><a xlink:href="structuniversalRobots_1_1pose.html" target="_top" xlink:title="Structure which holds a pose { x y z } { alpha beta gamma }.">
<polygon fill="white" stroke="transparent" points="119,-250 0,-250 0,-96 119,-96 119,-250"/>
<text text-anchor="start" x="5.5" y="-238" font-family="Helvetica,sans-Serif" font-size="10.00">universalRobots::pose</text>
<text text-anchor="start" x="58" y="-223" font-family="Helvetica,sans-Serif" font-size="10.00"> </text>
<text text-anchor="start" x="9" y="-208" font-family="Helvetica,sans-Serif" font-size="10.00">+</text>
<text text-anchor="start" x="26.5" y="-208" font-family="Helvetica,sans-Serif" font-size="10.00">pose()</text>
<text text-anchor="start" x="9" y="-193" font-family="Helvetica,sans-Serif" font-size="10.00">+</text>
<text text-anchor="start" x="26.5" y="-193" font-family="Helvetica,sans-Serif" font-size="10.00">pose()</text>
<text text-anchor="start" x="9" y="-178" font-family="Helvetica,sans-Serif" font-size="10.00">+</text>
<text text-anchor="start" x="26.5" y="-178" font-family="Helvetica,sans-Serif" font-size="10.00">pose()</text>
<text text-anchor="start" x="9" y="-163" font-family="Helvetica,sans-Serif" font-size="10.00">+</text>
<text text-anchor="start" x="26.5" y="-163" font-family="Helvetica,sans-Serif" font-size="10.00">pose()</text>
<text text-anchor="start" x="9" y="-148" font-family="Helvetica,sans-Serif" font-size="10.00">+</text>
<text text-anchor="start" x="26.5" y="-148" font-family="Helvetica,sans-Serif" font-size="10.00">divideByConst()</text>
<text text-anchor="start" x="9" y="-133" font-family="Helvetica,sans-Serif" font-size="10.00">+</text>
<text text-anchor="start" x="26.5" y="-133" font-family="Helvetica,sans-Serif" font-size="10.00">subtract()</text>
<text text-anchor="start" x="9" y="-118" font-family="Helvetica,sans-Serif" font-size="10.00">+</text>
<text text-anchor="start" x="26.5" y="-118" font-family="Helvetica,sans-Serif" font-size="10.00">operator/()</text>
<text text-anchor="start" x="9" y="-103" font-family="Helvetica,sans-Serif" font-size="10.00">+</text>
<text text-anchor="start" x="26.5" y="-103" font-family="Helvetica,sans-Serif" font-size="10.00">operator&#45;()</text>
<polygon fill="#666666" stroke="#666666" points="0.5,-233 0.5,-233 119.5,-233 119.5,-233 0.5,-233"/>
<polygon fill="#666666" stroke="#666666" points="0.5,-218 0.5,-218 119.5,-218 119.5,-218 0.5,-218"/>
<polygon fill="none" stroke="#666666" points="0,-96 0,-250 119,-250 119,-96 0,-96"/>
</a>
</g>
</g>
<!-- Node2&#45;&gt;Node1 -->
<g id="edge1_Node000001_Node000002" class="edge">
<title>Node2&#45;&gt;Node1</title>
<g id="a_edge1_Node000001_Node000002"><a xlink:title=" ">
<path fill="none" stroke="#63b8ff" d="M59.5,-95.75C59.5,-83.69 59.5,-71.73 59.5,-61.2"/>
<polygon fill="none" stroke="#63b8ff" points="59.5,-61.15 55.5,-55.15 59.5,-49.15 63.5,-55.15 59.5,-61.15"/>
</a>
</g>
<text text-anchor="middle" x="95.5" y="-70" font-family="Helvetica,sans-Serif" font-size="10.00" fill="grey"> +m_jointPose</text>
</g>
<!-- Node3 -->
<g id="Node000003" class="node">
<title>Node3</title>
<g id="a_Node000003"><a xlink:title=" ">
<polygon fill="white" stroke="transparent" points="116,-357 3,-357 3,-308 116,-308 116,-357"/>
<text text-anchor="start" x="8.5" y="-344.5" font-family="Helvetica,sans-Serif" font-size="10.00">std::array&lt; float, 3 &gt;</text>
<text text-anchor="start" x="19" y="-329.5" font-family="Helvetica,sans-Serif" font-size="10.00">+</text>
<text text-anchor="start" x="43.5" y="-329.5" font-family="Helvetica,sans-Serif" font-size="10.00">elements</text>
<text text-anchor="start" x="58" y="-314.5" font-family="Helvetica,sans-Serif" font-size="10.00"> </text>
<polygon fill="#666666" stroke="#666666" points="3.5,-339.5 3.5,-339.5 116.5,-339.5 116.5,-339.5 3.5,-339.5"/>
<polygon fill="#666666" stroke="#666666" points="3.5,-324.5 3.5,-324.5 41.5,-324.5 41.5,-324.5 3.5,-324.5"/>
<polygon fill="#666666" stroke="#666666" points="41.5,-324.5 41.5,-324.5 116.5,-324.5 116.5,-324.5 41.5,-324.5"/>
<polygon fill="none" stroke="#666666" points="3,-308 3,-357 116,-357 116,-308 3,-308"/>
</a>
</g>
</g>
<!-- Node3&#45;&gt;Node2 -->
<g id="edge2_Node000002_Node000003" class="edge">
<title>Node3&#45;&gt;Node2</title>
<g id="a_edge2_Node000002_Node000003"><a xlink:title=" ">
<path fill="none" stroke="#63b8ff" d="M59.5,-307.92C59.5,-295.42 59.5,-279.2 59.5,-262.38"/>
<polygon fill="none" stroke="#63b8ff" points="59.5,-262.07 55.5,-256.07 59.5,-250.07 63.5,-256.07 59.5,-262.07"/>
</a>
</g>
<text text-anchor="middle" x="102" y="-282" font-family="Helvetica,sans-Serif" font-size="10.00" fill="grey"> +m_eulerAngles</text>
<text text-anchor="middle" x="102" y="-271" font-family="Helvetica,sans-Serif" font-size="10.00" fill="grey">+m_pos</text>
</g>
</g>
</svg>
