<?xml version="1.0" encoding="UTF-8" standalone="no"?>
<!DOCTYPE svg PUBLIC "-//W3C//DTD SVG 1.1//EN"
 "http://www.w3.org/Graphics/SVG/1.1/DTD/svg11.dtd">
<!-- Generated by graphviz version 2.43.0 (0)
 -->
<!-- Title: include/ur_kinematics/ur_kinematics.h Pages: 1 -->
<svg width="404pt" height="148pt"
 viewBox="0.00 0.00 403.50 148.00" xmlns="http://www.w3.org/2000/svg" xmlns:xlink="http://www.w3.org/1999/xlink">
<g id="graph0" class="graph" transform="scale(1 1) rotate(0) translate(4 144)">
<title>include/ur_kinematics/ur_kinematics.h</title>
<!-- Node1 -->
<g id="Node000001" class="node">
<title>Node1</title>
<g id="a_Node000001"><a xlink:title=" ">
<polygon fill="#999999" stroke="#666666" points="205,-140 81,-140 81,-110 205,-110 205,-140"/>
<text text-anchor="start" x="89" y="-128" font-family="Helvetica,sans-Serif" font-size="10.00">include/ur_kinematics</text>
<text text-anchor="middle" x="143" y="-117" font-family="Helvetica,sans-Serif" font-size="10.00">/ur_kinematics.h</text>
</a>
</g>
</g>
<!-- Node2 -->
<g id="Node000002" class="node">
<title>Node2</title>
<g id="a_Node000002"><a xlink:title=" ">
<polygon fill="#e0e0e0" stroke="#999999" points="48,-74 0,-74 0,-55 48,-55 48,-74"/>
<text text-anchor="middle" x="24" y="-62" font-family="Helvetica,sans-Serif" font-size="10.00">iosfwd</text>
</a>
</g>
</g>
<!-- Node1&#45;&gt;Node2 -->
<g id="edge1_Node000001_Node000002" class="edge">
<title>Node1&#45;&gt;Node2</title>
<g id="a_edge1_Node000001_Node000002"><a xlink:title=" ">
<path fill="none" stroke="#63b8ff" d="M114.5,-109.99C95.09,-100.45 69.57,-87.9 50.58,-78.57"/>
<polygon fill="#63b8ff" stroke="#63b8ff" points="52.09,-75.41 41.57,-74.14 49,-81.69 52.09,-75.41"/>
</a>
</g>
</g>
<!-- Node3 -->
<g id="Node000003" class="node">
<title>Node3</title>
<g id="a_Node000003"><a xlink:title=" ">
<polygon fill="#e0e0e0" stroke="#999999" points="187,-19 145,-19 145,0 187,0 187,-19"/>
<text text-anchor="middle" x="166" y="-7" font-family="Helvetica,sans-Serif" font-size="10.00">array</text>
</a>
</g>
</g>
<!-- Node1&#45;&gt;Node3 -->
<g id="edge2_Node000001_Node000003" class="edge">
<title>Node1&#45;&gt;Node3</title>
<g id="a_edge2_Node000001_Node000003"><a xlink:title=" ">
<path fill="none" stroke="#63b8ff" d="M121.7,-109.76C104.21,-96.18 83.98,-74.92 95,-55 103.67,-39.34 120.41,-28.45 135.45,-21.37"/>
<polygon fill="#63b8ff" stroke="#63b8ff" points="137.2,-24.43 145,-17.25 134.43,-18 137.2,-24.43"/>
</a>
</g>
</g>
<!-- Node4 -->
<g id="Node000004" class="node">
<title>Node4</title>
<g id="a_Node000004"><a xlink:title=" ">
<polygon fill="#e0e0e0" stroke="#999999" points="181.5,-74 104.5,-74 104.5,-55 181.5,-55 181.5,-74"/>
<text text-anchor="middle" x="143" y="-62" font-family="Helvetica,sans-Serif" font-size="10.00">Eigen/Dense</text>
</a>
</g>
</g>
<!-- Node1&#45;&gt;Node4 -->
<g id="edge3_Node000001_Node000004" class="edge">
<title>Node1&#45;&gt;Node4</title>
<g id="a_edge3_Node000001_Node000004"><a xlink:title=" ">
<path fill="none" stroke="#63b8ff" d="M143,-109.84C143,-102.21 143,-92.7 143,-84.45"/>
<polygon fill="#63b8ff" stroke="#63b8ff" points="146.5,-84.27 143,-74.27 139.5,-84.27 146.5,-84.27"/>
</a>
</g>
</g>
<!-- Node5 -->
<g id="Node000005" class="node">
<title>Node5</title>
<g id="a_Node000005"><a xlink:href="robot__parameters_8h.html" target="_top" xlink:title=" ">
<polygon fill="white" stroke="#666666" points="312.5,-74 199.5,-74 199.5,-55 312.5,-55 312.5,-74"/>
<text text-anchor="middle" x="256" y="-62" font-family="Helvetica,sans-Serif" font-size="10.00">robot_parameters.h</text>
</a>
</g>
</g>
<!-- Node1&#45;&gt;Node5 -->
<g id="edge4_Node000001_Node000005" class="edge">
<title>Node1&#45;&gt;Node5</title>
<g id="a_edge4_Node000001_Node000005"><a xlink:title=" ">
<path fill="none" stroke="#63b8ff" d="M170.07,-109.99C188.25,-100.58 212.07,-88.24 230.02,-78.95"/>
<polygon fill="#63b8ff" stroke="#63b8ff" points="232.04,-81.84 239.31,-74.14 228.82,-75.63 232.04,-81.84"/>
</a>
</g>
</g>
<!-- Node6 -->
<g id="Node000006" class="node">
<title>Node6</title>
<g id="a_Node000006"><a xlink:title=" ">
<polygon fill="#e0e0e0" stroke="#999999" points="395.5,-74 330.5,-74 330.5,-55 395.5,-55 395.5,-74"/>
<text text-anchor="middle" x="363" y="-62" font-family="Helvetica,sans-Serif" font-size="10.00">stdexcept</text>
</a>
</g>
</g>
<!-- Node1&#45;&gt;Node6 -->
<g id="edge6_Node000001_Node000006" class="edge">
<title>Node1&#45;&gt;Node6</title>
<g id="a_edge6_Node000001_Node000006"><a xlink:title=" ">
<path fill="none" stroke="#63b8ff" d="M195.7,-109.99C233.99,-99.8 285.14,-86.2 320.77,-76.73"/>
<polygon fill="#63b8ff" stroke="#63b8ff" points="322.07,-80.01 330.83,-74.05 320.27,-73.24 322.07,-80.01"/>
</a>
</g>
</g>
<!-- Node5&#45;&gt;Node3 -->
<g id="edge5_Node000005_Node000003" class="edge">
<title>Node5&#45;&gt;Node3</title>
<g id="a_edge5_Node000005_Node000003"><a xlink:title=" ">
<path fill="none" stroke="#63b8ff" d="M241.54,-54.98C227.58,-46.77 206.21,-34.18 189.75,-24.49"/>
<polygon fill="#63b8ff" stroke="#63b8ff" points="191.12,-21.23 180.72,-19.17 187.56,-27.26 191.12,-21.23"/>
</a>
</g>
</g>
</g>
</svg>
